<mxfile host="app.diagrams.net" modified="2023-12-12T03:29:48.829Z" agent="Mozilla/5.0 (Windows NT 10.0; Win64; x64) AppleWebKit/537.36 (KHTML, like Gecko) Chrome/120.0.0.0 Safari/537.36 Edg/120.0.0.0" version="22.1.7" etag="cjCh5rDtin5__LhymgfV" type="github">
  <diagram name="Page-1" id="HVx6aI6QRiBRNdqKIYlI">
    <mxGraphModel>
      <root>
        <mxCell id="0" />
        <mxCell id="1" parent="0" />
      </root>
    </mxGraphModel>
  </diagram>
</mxfile>
